<svg width="897" height="1082" viewBox="0 0 897 1082" fill="none" xmlns="http://www.w3.org/2000/svg">
<path d="M-205.868 1082C-216.375 1082.03 -226.872 1080.88 -237.288 1078.58C-322.936 1059.55 -400.657 963.548 -475.099 785.061L-476 782.9L-474.811 781.158L7.83789 62.1059L8.95486 65.1678C31.9793 125.984 56.0847 159.965 82.7124 168.97C124.005 182.959 166.451 133.789 207.491 86.2404C249.144 38.2116 292.239 -11.9787 335.045 2.55008C362.573 11.8557 387.399 46.4965 410.892 108.454L602.402 303.631C619.704 301.219 637.11 301.903 654.324 305.672C739.972 324.704 817.693 420.702 892.136 599.189L897 610.896L601.537 309.635C470.669 328.306 338.251 513.758 209.689 694.226C73.5963 885.201 -66.7845 1082 -205.868 1082ZM-471.1 783.92C-397.702 959.526 -321.062 1054.08 -236.892 1072.69C-89.1603 1105.47 61.5616 894.267 207.275 689.904C334.72 511.296 465.949 327.345 596.421 304.712L408.298 112.896L408.082 112.296C385.057 51.4795 360.952 17.4391 334.18 8.43364C292.887 -5.55478 250.441 43.6148 209.401 91.1634C167.748 139.192 124.69 189.383 81.8477 174.854C54.6435 165.668 30.1417 131.808 6.901 71.3515L-471.1 783.92ZM607.699 309.155L884.064 590.904C812 421.482 736.513 330.107 653.856 311.736C638.556 308.398 623.1 307.513 607.699 309.095V309.155Z" fill="#925FBB" fill-opacity="0.36"/>
<path d="M-155.387 931.069C-165.029 931.079 -174.659 929.995 -184.213 927.827C-260.024 910.476 -328.809 824.745 -394.82 665.649L-391.829 662.227C-326.611 819.822 -258.511 904.773 -183.564 921.883C-53.5607 951.541 79.0731 767.41 207.347 589.283C336.27 410.316 469.552 225.584 601.105 255.602C677.06 272.953 745.99 358.684 811.856 517.78L808.866 521.202C743.648 363.547 675.547 278.656 600.601 261.546C470.633 231.888 337.963 416.019 209.689 594.146C90.1349 759.906 -33.1666 931.069 -155.387 931.069Z" fill="#925FBB" fill-opacity="0.36"/>
<path d="M-104.942 780.138C-113.599 780.134 -122.244 779.111 -130.813 777.076C-197.148 761.407 -257.25 685.881 -314.577 546.177L-311.622 542.815C-254.836 680.898 -195.491 755.703 -130.237 770.953C-17.9971 797.488 96.7648 640.434 207.455 488.783C318.902 335.991 434.133 178.096 547.922 204.992C614.257 220.661 674.358 296.187 731.685 435.891L728.73 439.253C671.944 301.17 612.599 226.365 547.345 211.116C435.105 184.58 320.343 341.634 209.653 493.285C106.674 634.49 0.415222 780.138 -104.942 780.138Z" fill="#925FBB" fill-opacity="0.36"/>
<path d="M-54.4255 629.207C-62.1797 629.226 -69.9239 628.283 -77.5941 626.386C-134.236 612.337 -185.69 547.018 -234.514 426.766L-231.523 423.704C-183.168 542.515 -132.651 606.994 -77.0536 620.742C17.4223 644.216 113.916 514.178 207.383 388.402C301.391 261.846 398.605 130.968 494.63 154.802C551.273 168.85 602.726 234.11 651.55 354.422L648.559 357.784C600.204 238.973 549.687 174.494 494.09 160.745C399.614 137.331 303.12 267.31 209.653 393.085C123.212 509.135 34.0691 629.207 -54.4255 629.207Z" fill="#925FBB" fill-opacity="0.36"/>
<path d="M-3.90854 478.396C-10.7617 478.414 -17.605 477.531 -24.3747 475.754C-71.2163 463.327 -113.878 408.214 -154.378 307.293L-151.388 303.931C-111.464 403.411 -69.739 457.684 -23.7982 469.811C52.95 490.043 131.464 387.081 207.419 287.481C283.951 187.101 363.114 83.3583 441.411 103.951C488.253 116.378 530.915 171.491 571.415 272.412L568.388 275.774C528.501 176.294 486.775 122.022 440.835 109.894C364.122 89.6622 285.573 192.624 209.617 292.224C139.607 383.899 67.543 478.396 -3.90854 478.396Z" fill="#925FBB" fill-opacity="0.36"/>
<path d="M46.6804 327.646C40.6412 327.669 34.6126 326.805 28.6644 325.064C-8.66476 314.258 -42.3907 269.291 -74.4232 187.702L-71.3965 184.4C-39.9406 264.548 -7.00729 308.614 29.2769 319.181C88.2974 336.291 148.759 260.285 207.239 186.741C266.332 112.476 327.442 35.6302 388.012 53.2208C425.341 64.0874 459.067 108.994 491.063 190.583L488.073 193.885C456.617 113.797 423.683 69.6707 387.399 59.1644C328.343 41.9941 267.917 118.06 209.437 191.244C156.29 258.664 101.377 327.646 46.6804 327.646Z" fill="#925FBB" fill-opacity="0.36"/>
<path d="M343.41 6.18549L341.637 11.4113L662.269 313.543L664.042 308.317L343.41 6.18549Z" fill="#925FBB" fill-opacity="0.36"/>
<path d="M276.994 18.6158L274.034 22.0378L434.354 407.096L437.315 403.674L276.994 18.6158Z" fill="#925FBB" fill-opacity="0.36"/>
<path d="M210.338 88.7019H206.735V692.185H210.338V88.7019Z" fill="#925FBB" fill-opacity="0.36"/>
<path d="M139.589 155.785L-20.434 977.847L-17.0065 979.699L143.016 157.638L139.589 155.785Z" fill="#925FBB" fill-opacity="0.36"/>
<path d="M72.7197 166.811L-247.522 1071.93L-244.418 1074.98L75.8236 169.86L72.7197 166.811Z" fill="#925FBB" fill-opacity="0.36"/>
</svg>
