<svg width="1098" height="1378" viewBox="0 0 1098 1378" fill="none" xmlns="http://www.w3.org/2000/svg">
<path d="M1186.44 1378L1181.8 1370.87C1158.02 1333.17 1152.4 1292.33 1146.92 1252.86C1141.63 1214.31 1136.57 1177.87 1116.18 1143.46C1097.61 1122.16 1074.76 1114.06 1050.57 1105.46C1041.29 1102.12 1031.53 1098.68 1022.02 1094.38C977.346 1074.14 944.006 1048.84 907.648 1016.81C862.607 969.446 821.606 916.719 781.951 865.662C758.734 835.858 735.099 805.396 710.489 775.795C708.634 811.635 703.722 847.209 695.815 882.057C664.147 959.325 656.3 1045.7 648.778 1129.19C647.431 1144.37 646.038 1159.55 644.552 1174.23L644.134 1178.73L640.837 1175.95C571.604 1118.06 513.144 1085.52 445.35 1067.21C438.988 1065.74 432.488 1064.42 426.033 1063.06C375.606 1052.53 327.964 1042.56 300.661 987.966C268.157 926.991 262.074 853.316 256.363 782.069C255.341 769.824 254.366 757.73 253.298 745.889C252.509 739.058 251.719 732.126 250.976 725.143C243.918 661.385 236.628 595.452 204.217 540.296C184.436 514.996 159.641 492.883 135.681 471.681C126.394 463.433 116.689 454.932 107.541 446.38C71.6798 412.358 38.4019 375.23 8.0331 335.361L0 324.887L10.9585 331.516C80.0989 373.464 152.397 404.23 245.265 431.301C324.621 459.537 377.835 492.023 428.866 543.332C467.499 577.741 510.822 607.141 552.706 635.528C592.035 662.245 632.758 689.823 669.859 721.803C682.396 735.364 694.608 749.33 706.588 763.498C708.26 731.822 708.539 699.792 708.864 668.267C709.235 630.569 709.653 591.606 712.346 554.667C713.275 549.05 714.203 543.687 715.086 538.222C726.323 470.365 739.046 393.502 815.244 375.994C880.252 357.525 922.553 327.214 948.417 280.611C972.284 230.313 994.48 177.941 1015.98 127.289C1022.48 111.906 1029.01 96.5402 1035.57 81.1912C1063.9 32.0574 1093.06 -18.4428 1161.92 6.65546L1163.13 7.11093L1163.41 8.47711C1166.05 20.8238 1168.79 32.4621 1171.39 43.898C1181.19 85.7452 1189.69 121.875 1186.67 165.746C1182.72 202.735 1194.05 250.402 1204.08 292.249C1207.57 306.873 1210.86 320.737 1213.37 332.73L1256.79 559.019C1265.05 602.89 1272.2 647.723 1279.12 691.088C1284.79 726.509 1290.64 763.448 1297.09 799.476L1297.56 802.158C1315.53 901.185 1324.53 950.875 1293.84 1049.45C1283.9 1073.99 1272.16 1099.04 1259.76 1125.35C1224.1 1201.25 1183.7 1287.58 1186.21 1368.89L1186.44 1378ZM711.092 768.812C736.863 799.577 761.566 831.355 785.712 862.373C825.274 913.329 866.182 966.005 911.084 1013.01C946.978 1044.64 979.992 1069.84 1024.15 1089.72C1033.44 1093.92 1043.1 1097.37 1052.38 1100.65C1077.18 1109.46 1100.58 1117.76 1120.18 1140.38C1141.4 1176.05 1146.74 1214.71 1151.89 1252.1C1156.91 1288.49 1162.11 1325.98 1181.61 1360.69C1182.12 1280.74 1221.17 1197.4 1255.9 1123.53C1268.3 1097.06 1280.05 1072.06 1289.85 1047.88C1320.08 950.824 1311.11 901.539 1293.33 803.423L1292.87 800.69C1286.36 764.612 1280.51 727.825 1274.85 692.201C1267.98 648.887 1260.92 604.105 1252.56 560.335L1208.73 333.995C1206.41 321.952 1203.11 308.138 1199.44 293.514C1189.32 251.06 1177.89 202.988 1181.89 165.088C1184.86 122.178 1176.46 86.4031 1166.8 45.0112C1164.24 34.132 1161.6 22.9491 1159.04 11.0578C1094.55 -11.7633 1066.55 36.7632 1039.52 83.6706C1033.07 98.851 1026.57 114.031 1020.02 129.212C998.52 179.813 976.278 232.337 952.364 282.888C925.757 330.858 882.713 361.876 816.173 380.7C742.946 397.55 731.013 469.404 719.497 538.93C718.615 544.344 717.732 549.759 716.804 555.122C714.157 591.657 713.739 630.518 713.368 668.115C713.321 701.613 712.996 735.364 711.092 768.812ZM19.7345 342.547C47.6635 378.266 78.0246 411.64 110.56 442.383C119.847 450.935 129.133 459.436 138.42 467.684C162.566 489.037 187.547 511.099 207.793 537.26C240.9 593.63 248.283 660.171 255.388 724.485C256.177 731.468 256.92 738.35 257.709 745.282C258.824 757.173 259.799 769.318 260.774 781.563C266.485 852.405 272.336 925.372 304.515 985.385C330.982 1038.01 377.602 1047.73 426.915 1058.05C433.416 1059.36 439.917 1060.73 446.371 1062.2C513.84 1080.46 572.022 1112.55 640.373 1169.17C641.72 1155.76 642.927 1142.2 644.134 1128.69C651.75 1044.79 659.597 958.01 691.451 880.387C699.603 844.367 704.594 807.583 706.356 770.532C693.494 755.352 680.353 740.171 666.934 725.547C630.204 693.972 589.621 666.445 550.384 639.829C508.361 611.341 464.945 581.84 425.987 547.128C375.327 496.273 322.671 464.141 244.011 436.159C155.694 410.504 85.9032 381.408 19.7345 342.547Z" fill="#925FBB" fill-opacity="0.36"/>
<path d="M1120.5 1142.4L1115.86 1141.79C1122.22 1087.75 1124.82 1065.44 1114.65 1007.19C1104.99 951.178 1103.46 893.139 1101.97 837.073C1101.74 827.812 1101.51 818.553 1101.23 809.343C1100.95 796.895 1100.67 784.397 1100.44 771.949C1099.19 711.531 1097.89 648.988 1093.76 587.71C1087.95 532.048 1081.4 475.527 1074.67 417.892L1055.03 250.3C1047.83 190.793 1041.56 137.409 1035.9 87.2125L1040.54 86.6052C1046.25 136.802 1052.48 190.135 1059.67 249.643L1079.31 417.285C1086.05 474.919 1092.6 531.289 1098.45 587.254C1102.58 648.785 1103.88 711.328 1105.13 771.848C1105.35 784.296 1105.61 796.743 1105.92 809.191C1106.2 818.401 1106.43 827.661 1106.66 836.921C1108.15 892.835 1109.68 950.622 1119.25 1006.28C1129.79 1065.28 1127 1087.85 1120.5 1142.4Z" fill="#925FBB" fill-opacity="0.36"/>
<path d="M906.905 1014.94C906.255 993.886 906.905 978.453 907.927 958.87C908.716 942.07 909.598 923.044 909.923 895.214C910.295 853.012 910.341 810.102 910.341 768.711V718.362C910.666 669.279 910.991 618.475 912.942 568.532V568.127C915.124 513.478 915.913 495.059 920.139 457.159C922.769 433.354 926.504 409.71 931.33 386.317C932.305 381.257 933.326 376.197 934.441 370.226L935.973 362.18C941.226 336.633 945.164 310.786 947.767 284.76L952.411 285.317C949.795 311.512 945.842 337.527 940.57 363.243L939.409 370.782C938.295 376.652 937.273 381.965 936.298 386.924C931.49 410.216 927.771 433.759 925.154 457.462C920.928 495.16 920.185 513.528 918.003 568.077V568.633C916.053 618.475 915.728 669.178 915.403 718.261V768.609C915.403 810.102 915.403 853.012 914.985 895.112C914.66 923.044 913.777 942.121 912.942 958.971C912.059 978.453 911.316 993.785 911.967 1014.63L906.905 1014.94Z" fill="#925FBB" fill-opacity="0.36"/>
<path d="M670.88 724.029L666.237 723.726C667.119 709.406 667.769 697.666 668.373 686.635C669.441 667.609 670.37 651.214 672.088 627.432C673.822 597.51 677.047 567.712 681.746 538.171C685.011 512.858 691.028 488.058 699.67 464.293C708.956 438.234 714.9 427.506 728.319 411.921C741.739 396.336 751.026 391.68 768.81 386.064C781.838 382.034 795.124 379.074 808.558 377.208L814.269 376.298L814.966 381.358L809.254 382.269C796.016 384.066 782.928 386.993 770.11 391.023C752.837 396.437 745.036 399.928 731.709 415.463C718.383 430.998 713.136 440.764 703.849 466.064C695.323 489.534 689.399 514.03 686.204 539.031C681.494 568.399 678.285 598.03 676.592 627.786C674.874 651.467 673.945 667.862 672.877 686.888C672.413 697.97 671.763 709.81 670.88 724.029Z" fill="#925FBB" fill-opacity="0.36"/>
<path d="M711.882 555.73C692.3 540.589 671.614 527.22 650.031 515.755C625.561 502.649 614.045 498.348 593.893 494.654C578.115 491.291 561.889 491.291 546.112 494.654C531.374 496.843 516.983 501.236 503.346 507.709C490.615 513.267 478.209 519.672 466.199 526.887L464.945 527.596L454.219 533.769C445.814 538.829 439.128 542.523 428.773 547.836L426.823 543.231C437.085 538.171 443.678 534.174 452.036 529.316L462.763 523.143L464.063 522.384C476.26 515.064 488.868 508.591 501.814 503.003C515.779 496.386 530.513 491.891 545.601 489.645C561.887 486.289 578.612 486.375 594.868 489.898C615.531 493.693 627.372 498.095 652.26 511.454C674.042 523.068 694.914 536.607 714.668 551.935L711.882 555.73Z" fill="#925FBB" fill-opacity="0.36"/>
<path d="M690.058 881.096C663.637 856.2 642.231 841.627 612.652 821.437L589.435 805.447L585.442 802.714C543.651 773.821 520.852 757.882 486.537 726.559C452.222 695.237 438.199 678.589 416.886 643.27C405.441 624.403 395.395 604.572 386.843 583.965C383.221 575.869 379.553 567.469 374.863 557.45C359.214 524.053 348.117 502.446 318.213 479.726C296.46 462.956 272.973 449.03 248.237 438.233L243.872 436.108L245.776 431.503L250.141 433.578C275.148 444.496 298.886 458.594 320.86 475.577C351.042 498.5 362.976 521.118 378.995 555.173C383.639 565.293 387.4 573.642 391.022 581.789C399.543 602.16 409.494 621.784 420.786 640.487C441.867 675.3 455.38 691.442 489.602 722.663C523.823 753.884 546.53 769.672 588.042 798.565L591.989 801.348C600.393 807.167 608.101 812.379 615.206 817.287C644.924 837.528 666.283 852.253 693.122 877.452L690.058 881.096Z" fill="#925FBB" fill-opacity="0.36"/>
<path d="M451.479 1060.68L447.625 1057.8C456.076 1044.3 464.465 1031.06 472.792 1018.07C516.673 949.003 558.185 883.778 588.46 802.36C603.319 750.747 612.745 697.211 621.846 645.497C629.508 601.878 637.448 556.792 648.638 512.871C670.509 453.313 695.073 386.064 768.485 386.064H769.46C778.747 386.064 788.498 386.064 798.063 386.064C844.265 386.064 892.046 386.418 936.112 368.1C986.354 344.773 1020.39 297.512 1053.31 251.718L1055.63 248.53C1061.67 240.737 1067.66 231.578 1074.21 221.913C1100.72 181.432 1133.69 131.489 1185.65 163.317L1183.37 167.77C1134.9 138.118 1104.44 184.215 1077.83 224.848C1071.42 234.614 1065.34 243.874 1059.26 251.718L1056.98 254.855C1023.69 301.054 989.279 348.872 937.877 372.756C892.975 391.326 844.683 391.023 798.017 391.023C788.498 391.023 778.979 391.023 769.46 391.023H768.578C698.323 391.023 674.27 456.551 653.003 514.389C641.952 557.855 634.058 602.84 626.396 646.357C617.11 698.274 607.823 752.012 592.825 804.081C562.271 886.207 520.666 951.634 476.739 1020.96C468.35 1033.98 459.93 1047.22 451.479 1060.68Z" fill="#925FBB" fill-opacity="0.36"/>
<path d="M309.623 983.057L306.28 979.515C374.774 901.793 435.051 815.943 485.98 723.574C507.107 681.373 526.47 637.299 545.23 594.693C560.181 560.638 575.69 525.42 592.035 491.264C616.599 435.602 669.58 404.887 730.223 411.415C770.203 415.665 809.951 426.595 848.444 436.716C872.869 443.294 898.129 450.024 923.111 455.084C976.76 464.562 1031.67 450.458 1075.79 415.868L1209.93 331.667L1212.26 336.019L1078.25 419.764C1055.94 437.267 1030.69 449.803 1003.93 456.654C977.178 463.505 949.444 464.536 922.321 459.689C897.154 454.628 871.847 447.848 847.33 441.32C809.022 431.2 769.414 420.422 729.759 416.02C671.113 409.745 619.942 439.246 596.168 493.085C579.823 527.292 564.36 562.46 549.409 596.514C530.835 639.171 511.24 683.245 490.019 725.699C438.877 818.544 378.369 904.867 309.623 983.057Z" fill="#925FBB" fill-opacity="0.36"/>
<path d="M260.356 746.749L259.381 741.689C326.107 726.509 372.077 684.864 417.257 639.93C432.162 622.473 447.021 604.054 461.37 586.191C487.605 553.655 514.722 520.005 544.115 490.049C591.757 438.79 639.77 446.38 702.456 462.724C746.093 480.581 788.868 500.848 830.614 523.446C858.474 537.968 887.449 552.946 916.424 566.255C981.432 591.1 1027.31 600.866 1095.85 585.078C1153.61 574.452 1205.38 565.394 1254.28 557.298L1254.98 562.358C1206.13 570.404 1154.35 579.512 1096.68 590.088C1027.59 606.027 979.435 595.704 914.799 571.011C885.545 557.652 856.617 542.624 828.617 528.051C787.43 506.697 745.036 484.584 701.155 467.633C640.187 451.744 593.289 444.255 547.319 493.743C518.019 523.699 490.995 557.247 464.852 589.885C450.458 607.748 435.599 626.217 420.508 643.877C374.723 689.216 328.196 731.265 260.356 746.749Z" fill="#925FBB" fill-opacity="0.36"/>
<path d="M1136.1 812.582C1125.28 812.582 1114.42 812.329 1103.6 811.772C1023.69 807.825 969.313 772.657 911.502 730.81C883.642 708.191 856.431 684.004 830.01 660.626C783.112 619.234 734.681 576.426 682.814 541.005C626.304 508.822 572.579 478.563 502.928 507.406C493.084 512.01 483.054 517.526 472.467 522.839C441.635 539.031 409.688 555.78 376.813 558.766H376.302C362.743 556.843 349.092 554.566 335.951 552.39C293.557 545.407 253.577 538.778 210.811 541.055V535.995C254.041 533.668 294.392 540.347 336.88 547.38C349.928 549.556 363.44 551.783 376.906 553.706C408.853 550.72 440.288 534.224 470.703 518.285C481.336 512.668 491.366 507.406 501.442 502.7C573.09 472.997 627.511 503.762 685.182 536.349C737.421 571.77 785.991 614.933 832.982 656.426C859.357 679.753 886.66 703.89 914.242 726.357C973.399 769.419 1025.03 802.765 1103.83 806.661C1154.17 809.293 1205.2 805.042 1254.56 800.893C1267.93 799.78 1281.3 798.616 1294.68 797.654L1295 802.714C1281.63 803.676 1268.3 804.789 1254.93 805.953C1215.97 809.242 1176.22 812.582 1136.1 812.582Z" fill="#925FBB" fill-opacity="0.36"/>
<path d="M1290.22 1050.86C1245.41 1012.36 1189.64 1011.04 1135.69 1009.77L1117.11 1009.27C1031.07 1013.01 968.013 955.935 910.852 897.086C885.638 868.445 860.703 839.046 836.557 810.608C784.783 749.533 731.291 686.382 672.97 629.506C607.962 577.286 547.226 539.891 463.273 527.595C416.839 525.015 374.491 505.533 333.258 486.76L318.445 479.98C268.018 467.683 216.29 461.055 165.909 454.679C148.775 452.503 131.548 450.277 114.228 447.848L114.832 442.788C132.105 445.216 149.332 447.392 166.466 449.619C216.801 455.995 268.622 462.674 319.699 474.919C325.039 477.298 330.007 479.575 334.929 481.852C375.652 500.473 417.768 519.752 463.413 522.333C548.527 534.73 609.773 572.479 675.617 625.357C734.263 682.536 787.848 745.737 839.669 806.914C863.768 835.352 888.657 864.751 913.963 893.24C972.656 953.658 1032.37 1007.75 1116.93 1003.96L1135.78 1004.46C1190.48 1005.73 1247.22 1007.09 1293.05 1046.66L1290.22 1050.86Z" fill="#925FBB" fill-opacity="0.36"/>
</svg>
