<?xml version="1.0" encoding="UTF-8"?>
<svg version="1.1" xmlns="http://www.w3.org/2000/svg" width="203" height="115">
<path d="M0 0 C2.03731554 -0.01715075 4.07298135 -0.06100901 6.10986328 -0.10522461 C7.39763672 -0.11360352 8.68541016 -0.12198242 10.01220703 -0.13061523 C11.7857959 -0.15248901 11.7857959 -0.15248901 13.59521484 -0.17480469 C17.42987233 0.38594552 18.96654018 1.74687287 21.80908203 4.29516602 C24.36139297 4.88197549 24.36139297 4.88197549 26.93408203 4.73266602 C28.20638672 4.73073242 28.20638672 4.73073242 29.50439453 4.72875977 C31.87924862 4.5223275 31.87924862 4.5223275 33.17175293 2.79034424 C35.31220033 0.83572782 36.44452003 0.92566026 39.31103516 0.9387207 C40.22559479 0.93578003 41.14015442 0.93283936 42.08242798 0.92980957 C43.57134048 0.94823914 43.57134048 0.94823914 45.09033203 0.96704102 C46.12378754 0.96837036 47.15724304 0.96969971 48.22201538 0.97106934 C51.58465462 0.98000274 54.94660679 1.01143219 58.30908203 1.04516602 C60.60611623 1.05973589 62.90315414 1.07373306 65.20019531 1.0871582 C70.76173015 1.12545322 76.32272047 1.18586966 81.88391113 1.25805664 C84.46279246 1.29077291 87.04163429 1.31774886 89.62060547 1.34204102 C93.30929928 1.37984701 96.99626849 1.45444624 100.68408203 1.54516602 C101.67601562 1.55902344 102.66794922 1.57288086 103.68994141 1.5871582 C112.81103227 1.90859232 121.66282305 4.43751639 129.37158203 9.42016602 C130.15662109 9.91774414 130.94166016 10.41532227 131.75048828 10.92797852 C133.43785311 12.04861929 135.12368497 13.17156797 136.80908203 14.29516602 C136.80908203 14.95516602 136.80908203 15.61516602 136.80908203 16.29516602 C137.69466797 16.68188477 137.69466797 16.68188477 138.59814453 17.07641602 C146.9972011 21.70628465 152.92386903 32.80811363 155.62158203 41.67016602 C156.03465628 43.2073029 156.43198794 44.74880895 156.80908203 46.29516602 C156.98109131 46.90553711 157.15310059 47.5159082 157.33032227 48.14477539 C158.22894193 52.18100282 158.03607264 56.30148449 158.05908203 60.42016602 C158.09001953 61.76981445 158.09001953 61.76981445 158.12158203 63.14672852 C158.20439236 77.55572636 151.80015183 90.4785198 141.93408203 100.79516602 C131.69774224 110.34176775 119.82950858 115.56518051 105.75732422 115.33276367 C104.58039001 115.31589508 103.40345581 115.29902649 102.19085693 115.28164673 C100.92533997 115.25774872 99.659823 115.23385071 98.35595703 115.20922852 C97.01434965 115.18737909 95.67273563 115.16593349 94.33111572 115.14486694 C91.51006203 115.09941134 88.68910494 115.05027146 85.86816406 114.99829102 C82.33666238 114.93332711 78.80509279 114.87549573 75.27342987 114.82008743 C67.76479244 114.7017857 60.25735042 114.55236587 52.74975586 114.38024902 C50.13451095 114.32378332 47.51909307 114.27480456 44.90356445 114.23352051 C41.27246964 114.17577483 37.64268204 114.09389571 34.01220703 114.00610352 C32.93195251 113.99439117 31.851698 113.98267883 30.7387085 113.97061157 C23.48665995 113.75798367 23.48665995 113.75798367 20.13623047 111.46948242 C18.18056248 108.26543918 18.34961448 105.97090646 18.80908203 102.29516602 C19.95117187 100.11230469 19.95117187 100.11230469 21.80908203 98.29516602 C24.61230469 97.76513672 24.61230469 97.76513672 27.97314453 97.72094727 C29.17712891 97.69323242 30.38111328 97.66551758 31.62158203 97.63696289 C33.50876953 97.62246094 33.50876953 97.62246094 35.43408203 97.60766602 C37.92633439 97.56579008 40.4185313 97.52041518 42.91064453 97.47094727 C44.01746582 97.45974854 45.12428711 97.4485498 46.26464844 97.43701172 C48.74408892 97.58237655 48.74408892 97.58237655 49.80908203 96.29516602 C49.88056402 94.94272684 49.89307658 93.58682235 49.87158203 92.23266602 C49.85095703 90.93329102 49.83033203 89.63391602 49.80908203 88.29516602 C48.26583252 88.32658691 48.26583252 88.32658691 46.69140625 88.35864258 C42.8560999 88.43131596 39.02085381 88.47706422 35.18505859 88.51489258 C33.52837878 88.5349461 31.87176921 88.56219631 30.21533203 88.59692383 C27.82713445 88.64572113 25.43987656 88.66819665 23.05126953 88.68579102 C21.94934769 88.71675873 21.94934769 88.71675873 20.82516479 88.74835205 C15.62970826 88.75059357 12.88650694 87.41549705 8.80908203 84.29516602 C5.84597349 83.62556676 3.92207759 83.94369877 0.80908203 84.29516602 C0.26509766 84.79016602 -0.27888672 85.28516602 -0.83935547 85.79516602 C-4.57343083 88.17703468 -8.35688975 87.76861949 -12.69091797 87.73266602 C-13.54556641 87.75264648 -14.40021484 87.77262695 -15.28076172 87.79321289 C-21.50651153 87.78835661 -21.50651153 87.78835661 -24.74951172 85.45141602 C-26.75451072 82.45206791 -26.84092221 80.83407799 -26.19091797 77.29516602 C-24.17242246 74.57719186 -22.57308159 72.61381804 -19.17358398 71.83007812 C-16.82663685 71.65787457 -14.5428211 71.66203256 -12.19091797 71.73266602 C-11.39685547 71.72170898 -10.60279297 71.71075195 -9.78466797 71.69946289 C-4.55022884 71.76489338 -2.13834468 72.64754386 1.80908203 76.29516602 C5.35158254 76.9619348 5.35158254 76.9619348 8.80908203 76.29516602 C9.34694336 75.62839844 9.88480469 74.96163086 10.43896484 74.2746582 C14.09882065 71.21799248 17.56230414 71.89976538 22.16845703 72.12329102 C23.07283508 72.15114685 23.97721313 72.17900269 24.90899658 72.20770264 C27.79339533 72.3009648 30.67579056 72.42268737 33.55908203 72.54516602 C35.51604863 72.61345111 37.47308095 72.67987955 39.43017578 72.74438477 C44.22417289 72.90645553 49.01657035 73.09405507 53.80908203 73.29516602 C52.81908203 68.84016602 52.81908203 68.84016602 51.80908203 64.29516602 C50.81054199 64.31087646 49.81200195 64.32658691 48.78320312 64.34277344 C45.05965316 64.39729221 41.33613813 64.43159536 37.61230469 64.45996094 C36.00417131 64.47499778 34.3960786 64.49543273 32.78808594 64.52148438 C30.4694614 64.55809424 28.15138154 64.57494323 25.83251953 64.58813477 C25.11977875 64.60361862 24.40703796 64.61910248 23.67269897 64.63505554 C18.98701348 64.63661635 15.74555892 63.8608183 11.80908203 61.29516602 C11.47908203 60.30516602 11.14908203 59.31516602 10.80908203 58.29516602 C9.03733384 58.3823998 7.26660826 58.49058257 5.49658203 58.60766602 C4.51044922 58.66567383 3.52431641 58.72368164 2.50830078 58.78344727 C-0.49064844 59.35198901 -1.28222729 60.0106101 -3.19091797 62.29516602 C-7.55826093 64.47883749 -13.45677984 63.48101505 -18.31176758 63.48046875 C-20.48457663 63.48264713 -22.6568712 63.50078353 -24.82958984 63.51977539 C-26.2169579 63.5227111 -27.60432837 63.52469471 -28.99169922 63.52563477 C-30.88142456 63.5317981 -30.88142456 63.5317981 -32.80932617 63.53808594 C-36.80669653 63.25093097 -39.68491808 62.37088022 -42.94091797 60.04516602 C-44.81097336 57.42708846 -45.12683026 55.49955156 -45.19091797 52.29516602 C-43.71630859 49.63916016 -43.71630859 49.63916016 -41.19091797 47.29516602 C-38.21465084 46.79918545 -35.81916898 46.6154911 -32.84716797 46.66625977 C-32.04106079 46.66384781 -31.23495361 46.66143585 -30.40441895 46.65895081 C-28.70315625 46.65992861 -27.00186148 46.67330674 -25.30078125 46.69824219 C-22.69925678 46.73255603 -20.10112927 46.71889998 -17.49951172 46.69946289 C-15.84454937 46.70636157 -14.18959577 46.71603416 -12.53466797 46.72875977 C-11.75853149 46.7237999 -10.98239502 46.71884003 -10.18273926 46.71372986 C-6.57363793 46.79228741 -4.63150124 46.92059952 -1.83325195 49.29956055 C-1.29128174 49.95811035 -0.74931152 50.61666016 -0.19091797 51.29516602 C2.44697974 51.88782002 2.44697974 51.88782002 5.24658203 51.73266602 C6.63683594 51.73073242 6.63683594 51.73073242 8.05517578 51.72875977 C10.87356604 51.4746142 10.87356604 51.4746142 13.13623047 49.80004883 C16.12119886 48.11943637 17.9329193 47.87829905 21.32861328 47.78344727 C22.35019531 47.74799805 23.37177734 47.71254883 24.42431641 47.67602539 C25.47941406 47.6534668 26.53451172 47.6309082 27.62158203 47.60766602 C28.69601563 47.57350586 29.77044922 47.5393457 30.87744141 47.50415039 C33.52121736 47.42189958 36.16467124 47.35267393 38.80908203 47.29516602 C39.13908203 45.64516602 39.46908203 43.99516602 39.80908203 42.29516602 C35.06336408 40.83949692 30.14319718 41.02210649 25.21923828 40.86938477 C21.27189415 40.2047117 19.56884204 39.15771038 16.80908203 36.29516602 C16.18408203 32.79516602 16.18408203 32.79516602 16.80908203 29.29516602 C19.53408341 26.46332049 21.22774334 25.39070981 25.13061523 24.74926758 C26.36126709 24.72832031 27.59191895 24.70737305 28.85986328 24.68579102 C29.8480732 24.66098663 29.8480732 24.66098663 30.85624695 24.63568115 C32.94478854 24.58739046 35.03260326 24.5658752 37.12158203 24.54516602 C38.54414427 24.51699005 39.96667293 24.48706034 41.38916016 24.45532227 C44.86231028 24.38164038 48.33532275 24.33194886 51.80908203 24.29516602 C51.85162559 22.29561856 51.84988986 20.29474965 51.80908203 18.29516602 C49.60992548 16.09600947 43.83046715 16.94222119 40.71142578 16.86547852 C35.16826754 16.62315466 35.16826754 16.62315466 33.14501953 14.77563477 C32.48373047 14.04280273 32.48373047 14.04280273 31.80908203 13.29516602 C29.17201055 12.85706257 29.17201055 12.85706257 26.30908203 12.98266602 C24.87048828 12.9884668 24.87048828 12.9884668 23.40283203 12.99438477 C20.57425583 13.12298854 20.57425583 13.12298854 17.80908203 15.29516602 C13.68319458 15.70299109 9.55690598 15.66677343 5.41235352 15.66577148 C3.3816335 15.67014437 1.35308936 15.70647138 -0.67724609 15.74438477 C-2.60020508 15.75018555 -2.60020508 15.75018555 -4.56201172 15.75610352 C-6.32436157 15.76843018 -6.32436157 15.76843018 -8.12231445 15.78100586 C-11.80555702 15.19785265 -12.93816487 14.20451218 -15.19091797 11.29516602 C-16.12841797 8.85766602 -16.12841797 8.85766602 -16.19091797 6.29516602 C-12.33413528 -1.41839936 -8.12362934 0.0476716 0 0 Z M64.43798828 33.04125977 C62.07227764 36.31467712 60.93356614 39.4297519 59.80908203 43.29516602 C62.77083326 42.6823899 64.18966986 42.0414408 66.80908203 40.29516602 C67.64439453 38.71735352 67.64439453 38.71735352 68.49658203 37.10766602 C72.89002972 29.10293747 81.69203313 23.09650557 90.35595703 20.54516602 C102.76240166 17.83830537 114.03328716 19.8651693 124.74658203 26.73266602 C127.23354177 28.61672642 129.01490438 30.75341434 130.80908203 33.29516602 C131.46908203 33.29516602 132.12908203 33.29516602 132.80908203 33.29516602 C133.21126953 34.37797852 133.21126953 34.37797852 133.62158203 35.48266602 C135.86280623 41.0869039 135.86280623 41.0869039 140.49658203 44.60766602 C141.25970703 44.83454102 142.02283203 45.06141602 142.80908203 45.29516602 C139.89837935 33.56919236 132.61169523 26.03148368 122.80908203 19.29516602 C101.6824302 6.99690716 79.13900873 15.96431682 64.43798828 33.04125977 Z M75.93408203 35.54516602 C75.23283203 36.45266602 74.53158203 37.36016602 73.80908203 38.29516602 C74.52966797 38.22297852 75.25025391 38.15079102 75.99267578 38.07641602 C84.18394761 37.36840693 92.33987981 37.15613186 100.55908203 37.10766602 C101.611521 37.09477539 102.66395996 37.08188477 103.74829102 37.06860352 C109.57859083 37.06127499 114.96167934 37.49767501 120.64941406 38.80322266 C123.68326738 39.4942937 126.72517481 39.89291725 129.80908203 40.29516602 C127.05715959 33.54044731 121.02811947 29.59113557 114.80908203 26.29516602 C101.46644823 20.80114033 85.2496517 24.49103599 75.93408203 35.54516602 Z M57.80908203 65.29516602 C59.88096224 78.59881786 65.48714567 88.17989261 76.57861328 96.33032227 C81.35210722 99.41328603 81.35210722 99.41328603 86.80908203 100.29516602 C87.18499024 97.91383236 87.18499024 97.91383236 86.80908203 95.29516602 C84.88874547 93.65581508 84.88874547 93.65581508 82.30908203 92.48266602 C72.98405564 87.29916478 68.05945074 80.95509489 63.80908203 71.29516602 C63.21262385 70.08300908 62.60981658 68.87392272 61.99658203 67.67016602 C61.60470703 66.88641602 61.21283203 66.10266602 60.80908203 65.29516602 C59.81908203 65.29516602 58.82908203 65.29516602 57.80908203 65.29516602 Z M68.80908203 65.29516602 C67.88117806 67.81790495 67.72457902 69.03241446 68.55908203 71.62719727 C73.2095315 80.85543294 78.3357257 86.14018517 87.80908203 90.29516602 C87.22733358 84.98648111 87.22733358 84.98648111 84.80908203 80.29516602 C84.14908203 80.29516602 83.48908203 80.29516602 82.80908203 80.29516602 C82.80908203 79.63516602 82.80908203 78.97516602 82.80908203 78.29516602 C82.14908203 78.29516602 81.48908203 78.29516602 80.80908203 78.29516602 C80.80908203 77.63516602 80.80908203 76.97516602 80.80908203 76.29516602 C80.14908203 76.29516602 79.48908203 76.29516602 78.80908203 76.29516602 C78.80908203 75.63516602 78.80908203 74.97516602 78.80908203 74.29516602 C78.14908203 74.29516602 77.48908203 74.29516602 76.80908203 74.29516602 C76.80908203 73.63516602 76.80908203 72.97516602 76.80908203 72.29516602 C76.14908203 72.29516602 75.48908203 72.29516602 74.80908203 72.29516602 C74.14908203 70.97516602 73.48908203 69.65516602 72.80908203 68.29516602 C72.14908203 68.29516602 71.48908203 68.29516602 70.80908203 68.29516602 C70.47908203 67.30516602 70.14908203 66.31516602 69.80908203 65.29516602 C69.47908203 65.29516602 69.14908203 65.29516602 68.80908203 65.29516602 Z M140.80908203 67.29516602 C138.61307925 69.49116879 138.42403845 70.37702802 137.68408203 73.29516602 C135.45892697 80.28689689 130.60166452 86.58175211 124.62158203 90.85766602 C121.94629266 92.22503614 119.78197342 92.94541409 116.80908203 93.29516602 C118.99876297 88.77894908 122.12243128 86.16898894 125.87548828 82.99438477 C129.30591697 79.97976562 132.15112502 76.57822163 133.80908203 72.29516602 C133.80908203 70.97516602 133.80908203 69.65516602 133.80908203 68.29516602 C127.85056712 69.14638243 123.95067837 74.30334439 119.80908203 78.29516602 C118.82681641 79.18655273 118.82681641 79.18655273 117.82470703 80.09594727 C114.51628092 83.39649617 113.43450459 85.70288431 113.30908203 90.42016602 C113.52957575 94.03626296 114.08260057 97.05801327 115.80908203 100.29516602 C125.82413376 97.43372266 133.90797592 90.58259115 139.45361328 81.88500977 C141.88042656 77.24818785 143.36628396 72.31101107 144.80908203 67.29516602 C143.48908203 67.29516602 142.16908203 67.29516602 140.80908203 67.29516602 Z " fill="#6B077B" transform="translate(45.19091796875,-0.295166015625)"/>
<path d="M0 0 C11.39187457 7.70154901 19.77318429 18.21067407 22.94140625 31.828125 C24.34154632 41.46512514 24.12050309 50.76848035 20.375 59.8125 C20.05789062 60.61945313 19.74078125 61.42640625 19.4140625 62.2578125 C14.05424753 74.38391871 3.91810385 84.09907465 -8.42578125 88.90234375 C-22.75678509 93.11050049 -37.37989976 91.63843518 -50.53515625 84.75390625 C-61.69843439 77.73981114 -69.44018795 66.70555345 -73.84765625 54.3984375 C-74.71493289 50.39763369 -74.7857523 46.73922564 -74.5 42.6875 C-74.44924316 41.94612793 -74.39848633 41.20475586 -74.34619141 40.44091797 C-73.21577198 26.93691005 -68.39477531 15.08409003 -58.5625 5.5625 C-42.10011946 -8.20345614 -18.57342201 -11.06824332 0 0 Z M-61.99609375 16.55859375 C-64.36180439 19.83201111 -65.50051589 22.94708589 -66.625 26.8125 C-63.66324877 26.19972388 -62.24441217 25.55877478 -59.625 23.8125 C-58.7896875 22.2346875 -58.7896875 22.2346875 -57.9375 20.625 C-53.54405232 12.62027145 -44.7420489 6.61383955 -36.078125 4.0625 C-23.67168037 1.35563935 -12.40079487 3.38250329 -1.6875 10.25 C0.79945974 12.13406041 2.58082234 14.27074832 4.375 16.8125 C5.035 16.8125 5.695 16.8125 6.375 16.8125 C6.7771875 17.8953125 6.7771875 17.8953125 7.1875 19 C9.4287242 24.60423788 9.4287242 24.60423788 14.0625 28.125 C14.825625 28.351875 15.58875 28.57875 16.375 28.8125 C13.46429732 17.08652635 6.1776132 9.54881766 -3.625 2.8125 C-24.75165183 -9.48575886 -47.2950733 -0.5183492 -61.99609375 16.55859375 Z M-50.5 19.0625 C-51.20125 19.97 -51.9025 20.8775 -52.625 21.8125 C-51.90441406 21.7403125 -51.18382813 21.668125 -50.44140625 21.59375 C-42.25013442 20.88574091 -34.09420222 20.67346585 -25.875 20.625 C-24.82256104 20.61210938 -23.77012207 20.59921875 -22.68579102 20.5859375 C-16.8554912 20.57860897 -11.47240269 21.01500899 -5.78466797 22.32055664 C-2.75081465 23.01162768 0.29109277 23.41025123 3.375 23.8125 C0.62307756 17.05778129 -5.40596256 13.10846955 -11.625 9.8125 C-24.9676338 4.31847432 -41.18443033 8.00836997 -50.5 19.0625 Z M-68.625 48.8125 C-66.5531198 62.11615184 -60.94693636 71.69722659 -49.85546875 79.84765625 C-45.08197481 82.93062001 -45.08197481 82.93062001 -39.625 83.8125 C-39.24909179 81.43116634 -39.24909179 81.43116634 -39.625 78.8125 C-41.54533656 77.17314906 -41.54533656 77.17314906 -44.125 76 C-53.45002639 70.81649877 -58.37463129 64.47242888 -62.625 54.8125 C-63.22145818 53.60034306 -63.82426545 52.3912567 -64.4375 51.1875 C-64.829375 50.40375 -65.22125 49.62 -65.625 48.8125 C-66.615 48.8125 -67.605 48.8125 -68.625 48.8125 Z M-57.625 48.8125 C-58.55290397 51.33523893 -58.70950301 52.54974844 -57.875 55.14453125 C-53.22455053 64.37276692 -48.09835633 69.65751915 -38.625 73.8125 C-39.20674845 68.5038151 -39.20674845 68.5038151 -41.625 63.8125 C-42.285 63.8125 -42.945 63.8125 -43.625 63.8125 C-43.625 63.1525 -43.625 62.4925 -43.625 61.8125 C-44.285 61.8125 -44.945 61.8125 -45.625 61.8125 C-45.625 61.1525 -45.625 60.4925 -45.625 59.8125 C-46.285 59.8125 -46.945 59.8125 -47.625 59.8125 C-47.625 59.1525 -47.625 58.4925 -47.625 57.8125 C-48.285 57.8125 -48.945 57.8125 -49.625 57.8125 C-49.625 57.1525 -49.625 56.4925 -49.625 55.8125 C-50.285 55.8125 -50.945 55.8125 -51.625 55.8125 C-52.285 54.4925 -52.945 53.1725 -53.625 51.8125 C-54.285 51.8125 -54.945 51.8125 -55.625 51.8125 C-55.955 50.8225 -56.285 49.8325 -56.625 48.8125 C-56.955 48.8125 -57.285 48.8125 -57.625 48.8125 Z M14.375 50.8125 C12.17899722 53.00850278 11.98995642 53.89436201 11.25 56.8125 C9.02484494 63.80423088 4.16758249 70.0990861 -1.8125 74.375 C-4.48778937 75.74237012 -6.65210861 76.46274807 -9.625 76.8125 C-7.43531906 72.29628306 -4.31165075 69.68632293 -0.55859375 66.51171875 C2.87183494 63.4970996 5.71704299 60.09555562 7.375 55.8125 C7.375 54.4925 7.375 53.1725 7.375 51.8125 C1.41648509 52.66371642 -2.48340366 57.82067837 -6.625 61.8125 C-7.60726562 62.70388672 -7.60726562 62.70388672 -8.609375 63.61328125 C-11.91780111 66.91383015 -12.99957744 69.22021829 -13.125 73.9375 C-12.90450628 77.55359694 -12.35148146 80.57534726 -10.625 83.8125 C-0.60994827 80.95105665 7.47389389 74.09992513 13.01953125 65.40234375 C15.44634453 60.76552184 16.93220193 55.82834505 18.375 50.8125 C17.055 50.8125 15.735 50.8125 14.375 50.8125 Z " fill="#6D0977" transform="translate(171.625,16.1875)"/>
<path d="M0 0 C11.39187457 7.70154901 19.77318429 18.21067407 22.94140625 31.828125 C24.34154632 41.46512514 24.12050309 50.76848035 20.375 59.8125 C20.05789062 60.61945313 19.74078125 61.42640625 19.4140625 62.2578125 C14.05424753 74.38391871 3.91810385 84.09907465 -8.42578125 88.90234375 C-22.75678509 93.11050049 -37.37989976 91.63843518 -50.53515625 84.75390625 C-61.69843439 77.73981114 -69.44018795 66.70555345 -73.84765625 54.3984375 C-74.71493289 50.39763369 -74.7857523 46.73922564 -74.5 42.6875 C-74.44924316 41.94612793 -74.39848633 41.20475586 -74.34619141 40.44091797 C-73.21577198 26.93691005 -68.39477531 15.08409003 -58.5625 5.5625 C-42.10011946 -8.20345614 -18.57342201 -11.06824332 0 0 Z M-62.00390625 16.5625 C-64.3433704 19.80956349 -65.40523175 23.01766544 -66.625 26.8125 C-67.285 27.1425 -67.945 27.4725 -68.625 27.8125 C-71.75020207 37.53535089 -71.41184386 46.45314607 -67.625 55.8125 C-67.30789062 56.67875 -66.99078125 57.545 -66.6640625 58.4375 C-61.99071973 70.1042848 -53.72290567 78.17699504 -42.625 83.8125 C-41.531875 84.410625 -40.43875 85.00875 -39.3125 85.625 C-32.04871914 88.83457759 -22.01519616 89.3326001 -14.5 86.6875 C-13.19217906 86.09704919 -11.90146754 85.46798333 -10.625 84.8125 C-9.75101563 84.38710937 -8.87703125 83.96171875 -7.9765625 83.5234375 C5.3403406 76.70080495 13.39001088 67.53785232 18.44921875 53.3984375 C21.61546341 41.13424931 19.58496977 30.81419811 13.375 19.8125 C6.81448371 9.22947737 -2.71009578 1.86154122 -14.6875 -1.375 C-34.68697033 -5.35448644 -49.06842299 1.57087352 -62.00390625 16.5625 Z " fill="#D49F28" transform="translate(171.625,16.1875)"/>
<path d="M0 0 C2.28125 2.06640625 2.28125 2.06640625 4 4 C4 4.66 4 5.32 4 6 C4.66 6 5.32 6 6 6 C9.26347733 11.31067714 11.73738839 15.69732126 12 22 C10.30802581 23.69197419 8.06640459 23.32657934 5.75 23.5 C2.82749799 23.72116231 0.11841484 23.97158044 -2.734375 24.65625 C-3.48203125 24.7696875 -4.2296875 24.883125 -5 25 C-5.66 24.34 -6.32 23.68 -7 23 C-6.625 20.375 -6.625 20.375 -6 18 C-4.125 17.375 -4.125 17.375 -2 17 C-1.34 17.66 -0.68 18.32 0 19 C2.65537372 19.56520003 5.29144713 19.73788198 8 20 C7.22520264 17.00847418 7.22520264 17.00847418 6 14 C4.515 13.505 4.515 13.505 3 13 C2.319375 11.948125 1.63875 10.89625 0.9375 9.8125 C-2.98330843 4.05566346 -9.0217345 1.23626115 -15.3125 -1.375 C-26.76715892 -3.31646761 -35.4452088 -1.88432071 -45.375 4 C-47.80872362 5.85426561 -49.86412622 7.8186821 -52 10 C-51.35160156 9.9278125 -50.70320313 9.855625 -50.03515625 9.78125 C-41.96654378 9.0178596 -33.91367219 8.82843379 -25.8125 8.75 C-24.6891626 8.72873047 -23.5658252 8.70746094 -22.40844727 8.68554688 C-20.82374634 8.6787793 -20.82374634 8.6787793 -19.20703125 8.671875 C-18.2528833 8.6625293 -17.29873535 8.65318359 -16.31567383 8.64355469 C-15.55150146 8.76118164 -14.7873291 8.87880859 -14 9 C-11.85190829 12.22213757 -11.70613847 13.27775401 -12 17 C-13 18 -13 18 -15.4375 18.1875 C-18 18 -18 18 -20 16 C-22.08237268 15.70650641 -22.08237268 15.70650641 -24.46484375 15.76953125 C-25.34720703 15.77146484 -26.22957031 15.77339844 -27.13867188 15.77539062 C-28.06228516 15.78763672 -28.98589844 15.79988281 -29.9375 15.8125 C-30.85724609 15.81314453 -31.77699219 15.81378906 -32.72460938 15.81445312 C-37.94537906 15.82653115 -37.94537906 15.82653115 -43 17 C-43 17.66 -43 18.32 -43 19 C-44.3125 21.0625 -44.3125 21.0625 -47 23 C-49.75922077 23.48392487 -52.4490057 23.68806008 -55.24609375 23.82421875 C-58.02306391 23.93612825 -58.02306391 23.93612825 -60.78515625 24.58203125 C-61.51605469 24.71996094 -62.24695313 24.85789063 -63 25 C-64 24 -64 24 -64.2109375 21.796875 C-63.6263688 14.04592709 -58.72086915 7.2160435 -53.1875 2.0625 C-37.03406012 -11.26589882 -17.29329838 -12.81333159 0 0 Z " fill="#D8A730" transform="translate(172,27)"/>
<path d="M0 0 C9.19330482 0.97546578 14.59501138 2.9352248 20.83984375 10.0390625 C24.08997069 13.43692249 26.31697383 15.6175891 30.83984375 17.0390625 C30.34484375 19.5140625 30.34484375 19.5140625 29.83984375 22.0390625 C27.46484375 22.6640625 27.46484375 22.6640625 24.83984375 23.0390625 C22.83984375 21.0390625 22.83984375 21.0390625 22.08984375 18.7265625 C20.40927615 15.11334216 17.95765513 13.47095537 14.83984375 11.0390625 C14.22109375 10.2759375 13.60234375 9.5128125 12.96484375 8.7265625 C9.6806157 6.11849905 6.94987822 6.7650602 2.83984375 7.0390625 C3.18876184 13.84296527 6.95038978 19.10515539 11.6171875 23.84375 C13.30705378 25.33024068 15.02915714 26.70352061 16.83984375 28.0390625 C17.66484375 28.6578125 18.48984375 29.2765625 19.33984375 29.9140625 C22.58777878 31.37563326 25.31516449 31.10556588 28.83984375 31.0390625 C30.83984375 33.0390625 30.83984375 33.0390625 30.96484375 35.6640625 C30.92359375 36.4478125 30.88234375 37.2315625 30.83984375 38.0390625 C27.86984375 38.5340625 27.86984375 38.5340625 24.83984375 39.0390625 C24.50984375 38.0490625 24.17984375 37.0590625 23.83984375 36.0390625 C22.84984375 35.9978125 21.85984375 35.9565625 20.83984375 35.9140625 C15.80469593 35.18315395 12.58404676 32.30323948 8.83984375 29.0390625 C8.21722656 28.51054688 7.59460938 27.98203125 6.953125 27.4375 C0.79644185 21.80166423 -4.62436783 12.79878806 -5.41015625 4.3515625 C-4.99307715 0.49358083 -3.75497616 0.04641503 0 0 Z " fill="#D49F2B" transform="translate(111.16015625,58.9609375)"/>
<path d="M0 0 C1.98 0 3.96 0 6 0 C7.93462156 6.63648661 4.97441985 12.07139446 2 18 C-1.99906609 23.92155291 -6.43803372 29.86815246 -13 33 C-15.875 33.25 -15.875 33.25 -18 33 C-17.73443442 29.73733712 -16.8504146 28.85833516 -14.41796875 26.5546875 C-13.34362265 25.65848084 -12.26667069 24.76539124 -11.1875 23.875 C-5.77891764 19.19987882 -2.84810818 15.02543251 -1 8 C-0.67 7.01 -0.34 6.02 0 5 C-5.12502091 4.62201581 -8.76219387 5.1387793 -13.04296875 8.1171875 C-19.28914096 13.66815625 -19.28914096 13.66815625 -23 21 C-23.33 21.33 -23.66 21.66 -24 22 C-24.16666667 25.5 -24.16666667 25.5 -24 29 C-23.67 29.33 -23.34 29.66 -23 30 C-22.95936168 31.66617115 -22.957279 33.33388095 -23 35 C-27.75 36.125 -27.75 36.125 -30 35 C-30.042721 33.33388095 -30.04063832 31.66617115 -30 30 C-29.67 29.67 -29.34 29.34 -29 29 C-28.76924918 27.65252916 -28.58846937 26.29622435 -28.4375 24.9375 C-28.293125 23.638125 -28.14875 22.33875 -28 21 C-28.66 21 -29.32 21 -30 21 C-30 19.35 -30 17.7 -30 16 C-29.11828125 15.59910156 -28.2365625 15.19820312 -27.328125 14.78515625 C-23.96188502 12.9795557 -21.53749392 11.03260554 -18.75 8.4375 C-17.47382813 7.25994141 -17.47382813 7.25994141 -16.171875 6.05859375 C-14.76376969 4.72393278 -13.37187472 3.37187472 -12 2 C-9.1796875 1.8046875 -9.1796875 1.8046875 -5.875 1.875 C-4.77929688 1.89304688 -3.68359375 1.91109375 -2.5546875 1.9296875 C-1.71164063 1.95289063 -0.86859375 1.97609375 0 2 C0 1.34 0 0.68 0 0 Z " fill="#D8A931" transform="translate(180,60)"/>
<path d="M0 0 C1.11592529 -0.01780518 2.23185059 -0.03561035 3.3815918 -0.05395508 C4.42742432 -0.05290771 5.47325684 -0.05186035 6.55078125 -0.05078125 C7.49219971 -0.05376221 8.43361816 -0.05674316 9.40356445 -0.05981445 C10.15726318 0.06304932 10.91096191 0.18591309 11.6875 0.3125 C13.83559171 3.53463757 13.98136153 4.59025401 13.6875 8.3125 C12.6875 9.3125 12.6875 9.3125 10.25 9.5 C7.6875 9.3125 7.6875 9.3125 5.6875 7.3125 C3.60512732 7.01900641 3.60512732 7.01900641 1.22265625 7.08203125 C0.34029297 7.08396484 -0.54207031 7.08589844 -1.45117188 7.08789062 C-2.8365918 7.10625977 -2.8365918 7.10625977 -4.25 7.125 C-5.16974609 7.12564453 -6.08949219 7.12628906 -7.03710938 7.12695312 C-12.25787906 7.13903115 -12.25787906 7.13903115 -17.3125 8.3125 C-17.3125 8.9725 -17.3125 9.6325 -17.3125 10.3125 C-18.625 12.375 -18.625 12.375 -21.3125 14.3125 C-24.07172077 14.79642487 -26.7615057 15.00056008 -29.55859375 15.13671875 C-32.33556391 15.24862825 -32.33556391 15.24862825 -35.09765625 15.89453125 C-35.82855469 16.03246094 -36.55945313 16.17039062 -37.3125 16.3125 C-38.3125 15.3125 -38.3125 15.3125 -38.5625 12.9375 C-38.3125 10.3125 -38.3125 10.3125 -37 8.5 C-35.3125 7.3125 -35.3125 7.3125 -32.3125 7.3125 C-31.71824219 6.51457031 -31.12398438 5.71664062 -30.51171875 4.89453125 C-27.00607735 0.77867163 -23.34621638 1.12525296 -18.1640625 0.59375 C-12.11504114 0.18753074 -6.06110831 0.06442008 0 0 Z " fill="#D39C25" transform="translate(146.3125,35.6875)"/>
<path d="M0 0 C3.77931616 2.07491867 6.95588415 4.13889228 9 8 C9.6078824 11.99465578 9.17186383 13.69183037 7.1875 17.25 C5.00736386 19.99074258 3.46430532 21.76417555 -0.0859375 22.3359375 C-4.21467052 22.40639369 -6.41215089 22.3674057 -10 20.125 C-13.42832351 16.48240627 -13.51891994 13.42579347 -13.4765625 8.5546875 C-12.76884757 4.7608714 -11.01303467 3.18101248 -7.93359375 1 C-4.99910036 -0.51763699 -3.23219103 -0.68770022 0 0 Z " fill="#D69F23" transform="translate(149,47)"/>
<path d="M0 0 C0.99 0.33 1.98 0.66 3 1 C0.42112061 5.77631682 -2.78231885 8.55013161 -6.94140625 11.9375 C-9.18795256 14.18830921 -9.98799328 16.0193633 -11 19 C-11.33 19.33 -11.66 19.66 -12 20 C-12.16666667 23.5 -12.16666667 23.5 -12 27 C-11.67 27.33 -11.34 27.66 -11 28 C-10.95936168 29.66617115 -10.957279 31.33388095 -11 33 C-15.75 34.125 -15.75 34.125 -18 33 C-18.042721 31.33388095 -18.04063832 29.66617115 -18 28 C-17.67 27.67 -17.34 27.34 -17 27 C-16.76924918 25.65252916 -16.58846937 24.29622435 -16.4375 22.9375 C-16.293125 21.638125 -16.14875 20.33875 -16 19 C-16.66 19 -17.32 19 -18 19 C-18 17.35 -18 15.7 -18 14 C-17.11828125 13.59910156 -16.2365625 13.19820312 -15.328125 12.78515625 C-11.96188502 10.9795557 -9.53749392 9.03260554 -6.75 6.4375 C-5.47382813 5.25994141 -5.47382813 5.25994141 -4.171875 4.05859375 C-2.76376969 2.72393278 -1.37187472 1.37187472 0 0 Z " fill="#D39D23" transform="translate(168,62)"/>
<path d="M0 0 C0 0.66 0 1.32 0 2 C-0.66008057 1.99363525 -1.32016113 1.98727051 -2.00024414 1.98071289 C-5.02211811 1.97197073 -8.04097857 2.01680246 -11.0625 2.0625 C-12.10083984 2.05154297 -13.13917969 2.04058594 -14.20898438 2.02929688 C-20.05533463 2.07931898 -20.05533463 2.07931898 -25.15209961 4.60522461 C-26.97768237 6.47692501 -26.97768237 6.47692501 -28.45507812 8.45898438 C-30 10 -30 10 -32.18554688 10.46289062 C-34.4375 10.4375 -34.4375 10.4375 -38 10 C-38.75 8.3125 -38.75 8.3125 -39 6 C-36.95148447 2.6488125 -35.73072106 1.22005196 -31.92578125 0.07421875 C-30.73339844 -0.05339844 -29.54101562 -0.18101563 -28.3125 -0.3125 C-27.66764648 -0.38315674 -27.02279297 -0.45381348 -26.35839844 -0.52661133 C-7.2060176 -2.40200587 -7.2060176 -2.40200587 0 0 Z " fill="#6B1373" transform="translate(153,37)"/>
<path d="M0 0 C3.5 0.875 3.5 0.875 5.5 2.5 C6.96981805 5.99081787 6.48413921 8.26648956 5.5 11.875 C3.875 13.875 3.875 13.875 1.5 14.875 C-2.0625 14.875 -2.0625 14.875 -5.5 13.875 C-7.5625 11.75 -7.5625 11.75 -8.5 8.875 C-7.875 5.1875 -7.875 5.1875 -6.5 1.875 C-3.5 -0.125 -3.5 -0.125 0 0 Z " fill="#721282" transform="translate(51.5,24.125)"/>
<path d="M0 0 C2.09375 -0.36328125 2.09375 -0.36328125 4.5 -0.3125 C5.69109375 -0.30669922 5.69109375 -0.30669922 6.90625 -0.30078125 C9 0 9 0 11 2 C11.67681895 9.10659898 11.67681895 9.10659898 9.4375 12.0625 C5.90893904 13.41963883 3.61224884 12.98515877 0 12 C-2 10.25 -2 10.25 -3 8 C-2.7434556 4.49389321 -1.9814066 2.9721099 0 0 Z " fill="#6F0980" transform="translate(47,98)"/>
<path d="M0 0 C0.99 0.33 1.98 0.66 3 1 C0.89851796 4.98175544 -1.36905358 7.35039045 -5 10 C-5 6.07176899 -3.48245551 4.93381106 -1 2 C-0.67 1.34 -0.34 0.68 0 0 Z " fill="#CB9229" transform="translate(168,62)"/>
</svg>
