<svg width="324" height="100" viewBox="0 0 324 100" fill="none" xmlns="http://www.w3.org/2000/svg">
<path d="M328.655 -0.0964447C328.823 -0.0964447 328.991 -0.00277295 329.076 0.122124L339.589 26.7252L345.855 52.9848L348 78.3076L346.234 102.1L340.178 124.426L327.982 146.127L312.086 163.831L293.287 177.039C293.245 177.07 293.203 177.07 293.203 177.101L272.386 184.626C272.176 184.689 271.924 184.626 271.84 184.47C271.755 184.314 271.84 184.127 272.05 184.064L292.825 176.57L311.413 163.425L327.225 145.846L339.379 124.27L345.393 102.038L347.159 78.3076L345.014 53.0784L338.79 26.8813L328.276 0.309462C328.192 0.153341 328.319 -0.0340015 328.571 -0.0652257C328.571 -0.0964499 328.613 -0.0964447 328.655 -0.0964447Z" fill="#102854" fill-opacity="0.48"/>
<path d="M256.363 -35.0364C256.406 -35.0364 256.448 -35.0364 256.49 -35.0364C256.7 -34.9739 256.826 -34.8178 256.784 -34.6617L245.135 -4.03071L235.547 16.2963C235.547 16.3275 235.505 16.3587 235.462 16.4212L202.408 42.7744L165.568 62.6955L125.869 78.1515L84.0667 87.9247C83.8564 87.9871 83.6041 87.8934 83.52 87.7373C83.4359 87.5812 83.562 87.3939 83.7723 87.3314L125.49 77.5582L165.063 62.1647L201.777 42.3061L234.706 16.0465L244.252 -4.21805L255.901 -34.8178C256.027 -34.9427 256.195 -35.0364 256.363 -35.0364Z" fill="#102854" fill-opacity="0.48"/>
<path d="M83.9405 87.3314C84.0246 87.3314 84.1087 87.3626 84.1929 87.3939L272.386 184.064C272.554 184.127 272.596 184.283 272.554 184.408C272.512 184.532 272.344 184.626 272.134 184.626L0.420532 186C0.21026 186 0.0420485 185.875 -5.84126e-06 185.719C-5.84126e-06 185.563 0.126165 185.407 0.336437 185.376C47.1009 178.569 67.2029 152.371 75.8661 131.607C85.2442 109.063 83.52 87.8622 83.52 87.6749C83.52 87.55 83.6041 87.4563 83.7303 87.3939C83.7723 87.3314 83.8564 87.3314 83.9405 87.3314ZM270.83 184.002L84.4031 88.2369C84.6134 91.9526 85.2022 111.312 76.6651 131.763C68.2122 152.09 48.8251 177.601 4.54188 185.344L270.83 184.002Z" fill="#102854" fill-opacity="0.48"/>
<path d="M125.658 77.5582C125.743 77.5582 125.827 77.5895 125.911 77.6207L293.245 176.57C293.371 176.664 293.455 176.789 293.371 176.914C293.329 177.039 293.203 177.132 292.951 177.132L43.4001 174.478C43.1898 174.478 43.0216 174.353 42.9796 174.197C42.9796 174.041 43.1057 173.885 43.316 173.854C84.8237 167.796 104.884 142.036 114.388 121.491C124.691 99.1966 125.196 78.089 125.196 77.8705C125.196 77.7456 125.28 77.6519 125.448 77.5894C125.532 77.5582 125.616 77.5582 125.658 77.5582ZM291.731 176.477L126.037 78.495C125.869 82.1794 124.565 101.445 115.187 121.678C105.893 141.786 86.5479 166.828 47.0589 173.854L291.731 176.477Z" fill="#102854" fill-opacity="0.48"/>
<path d="M165.316 62.1647C165.4 62.1647 165.526 62.1959 165.61 62.2583L312.001 163.425C312.128 163.519 312.17 163.643 312.086 163.768C312.001 163.893 311.875 163.956 311.665 163.956L84.277 157.274C84.0667 157.274 83.8985 157.149 83.8564 156.993C83.8564 156.837 83.9826 156.68 84.1929 156.649C120.486 151.341 140.504 126.049 150.849 105.754C162.12 83.7094 164.811 62.6643 164.811 62.4457C164.811 62.3208 164.937 62.2271 165.063 62.1959C165.19 62.1647 165.274 62.1647 165.316 62.1647ZM310.572 163.3L165.61 63.1326C165.063 66.8171 161.909 85.9888 151.69 105.972C141.555 125.831 122.252 150.436 87.5572 156.743L310.572 163.3Z" fill="#102854" fill-opacity="0.48"/>
<path d="M202.071 42.2748C202.197 42.2748 202.324 42.3061 202.366 42.3685L327.856 145.783C327.982 145.877 327.982 146.002 327.94 146.127C327.856 146.252 327.646 146.314 327.52 146.314L122.294 135.604C122.084 135.604 121.916 135.479 121.916 135.323C121.916 135.167 122.042 135.042 122.252 135.011C153.372 130.483 173.306 105.598 184.535 85.5516C196.73 63.7571 201.609 42.7744 201.693 42.5871C201.735 42.4622 201.819 42.3685 201.987 42.3373C201.987 42.2748 202.029 42.2748 202.071 42.2748ZM326.552 145.627L202.324 43.2428C201.398 46.896 196.352 65.974 185.292 85.7078C174.315 105.317 155.054 129.453 125.196 135.073L326.552 145.627Z" fill="#102854" fill-opacity="0.48"/>
<path d="M235.168 18.3883C235.294 18.3883 235.42 18.4507 235.505 18.5132L340.094 124.176C340.178 124.27 340.22 124.395 340.136 124.519C340.052 124.613 339.884 124.676 339.715 124.676L156.653 109.907C156.442 109.875 156.274 109.75 156.274 109.594C156.274 109.438 156.4 109.313 156.611 109.282C206.235 102.038 234.495 19.4499 234.79 18.6069C234.832 18.482 234.958 18.3883 235.126 18.3883C235.126 18.3883 235.126 18.3883 235.168 18.3883ZM338.832 123.989L235.336 19.4187C234.033 23.1032 227.094 42.0563 215.192 61.509C203.375 80.8368 184.198 104.536 159.134 109.469L338.832 123.989Z" fill="#102854" fill-opacity="0.48"/>
<path d="M262.125 -6.15395C262.293 -6.15395 262.419 -6.0915 262.503 -5.99782L346.15 101.913C346.234 102.007 346.234 102.132 346.15 102.257C346.065 102.35 345.897 102.413 345.729 102.381L184.829 83.5845C184.619 83.5533 184.493 83.4284 184.493 83.2723C184.493 83.1161 184.619 82.9912 184.829 82.96C224.528 77.1835 261.41 -5.12356 261.789 -5.93539C261.831 -6.06028 261.999 -6.12273 262.125 -6.15395C262.083 -6.15395 262.083 -6.15395 262.125 -6.15395ZM344.972 101.663L262.209 -5.06109C260.527 -1.3454 251.695 17.4828 238.995 36.6545C220.786 64.163 203.291 79.8064 187.016 83.2098L344.972 101.663Z" fill="#102854" fill-opacity="0.48"/>
<path d="M284.792 -32.1637C284.96 -32.1637 285.129 -32.1013 285.171 -31.9764L347.958 78.1827C348 78.2764 348 78.4013 347.874 78.495C347.79 78.5886 347.622 78.6198 347.453 78.5886L208.716 55.7637C208.506 55.7325 208.379 55.6076 208.379 55.4515C208.379 55.2953 208.506 55.1704 208.716 55.1392C238.448 50.7991 283.951 -31.1646 284.414 -32.0076C284.498 -32.0701 284.624 -32.1637 284.792 -32.1637ZM346.865 77.8705L284.834 -31.0397C280.166 -22.6716 239.584 48.6446 210.608 55.4515L346.865 77.8705Z" fill="#102854" fill-opacity="0.48"/>
<path d="M303.591 -59.6723C303.801 -59.6723 303.969 -59.5786 304.011 -59.4537L345.855 52.9535C345.897 53.0784 345.855 53.1721 345.729 53.2658C345.603 53.3594 345.435 53.3594 345.309 53.3282L228.692 26.4754C228.524 26.4442 228.397 26.288 228.397 26.1631C228.397 26.0382 228.566 25.9133 228.734 25.8821C248.499 23.0095 302.665 -58.6731 303.212 -59.485C303.296 -59.6099 303.422 -59.6723 303.591 -59.6723ZM344.804 52.5476L303.464 -58.517C297.787 -49.9928 250.476 20.3242 230.248 26.1631L344.804 52.5476Z" fill="#102854" fill-opacity="0.48"/>
<path d="M318.268 -88.1488C318.31 -88.1488 318.31 -88.1488 318.352 -88.1488C318.52 -88.1176 318.646 -88.0239 318.688 -87.899L339.589 26.7252C339.589 26.8501 339.547 26.9437 339.421 27.0062C339.295 27.0686 339.127 27.0999 339 27.0374L244.546 -3.84336C244.378 -3.9058 244.294 -4.03071 244.294 -4.1556C244.294 -4.2805 244.462 -4.4054 244.63 -4.43662C252.452 -5.59192 295.979 -59.6098 317.889 -88.0239C317.973 -88.0864 318.099 -88.1488 318.268 -88.1488ZM338.664 26.288L318.015 -86.8998C311.287 -78.1883 257.835 -9.40128 245.808 -4.09316L338.664 26.288Z" fill="#102854" fill-opacity="0.48"/>
<path d="M328.655 -117C328.697 -117 328.739 -117 328.781 -117C328.949 -116.969 329.076 -116.844 329.076 -116.688V0.215793C329.076 0.34069 328.991 0.434363 328.865 0.496811C328.739 0.55926 328.571 0.55926 328.445 0.496811L256.153 -34.4431C256.069 -34.4743 255.985 -34.568 255.985 -34.6305C255.943 -34.7241 255.985 -34.7866 256.027 -34.8802L328.319 -116.844C328.361 -116.938 328.529 -117 328.655 -117ZM328.234 -0.377463V-115.626L256.952 -34.8178L328.234 -0.377463Z" fill="#102854" fill-opacity="0.48"/>
</svg>
